<?xml version="1.0" encoding="utf-8"?>
<svg width="199.08446px" height="52.42621px" viewBox="0 0 199.08446 52.42621" version="1.1" xmlns:xlink="http://www.w3.org/1999/xlink" xmlns="http://www.w3.org/2000/svg">
  <defs>
    <linearGradient gradientUnits="userSpaceOnUse" x1="0" y1="0" x2="199.08444" y2="52.426224" id="gradient_1">
      <stop offset="19.753086%" stop-color="#EA539A" />
      <stop offset="50%" stop-color="#D22E7B" />
      <stop offset="96.91358%" stop-color="#830891" />
    </linearGradient>
  </defs>
  <path d="M175.821 52.4262C174.979 52.4262 174.227 52.3645 173.567 52.2409C172.906 52.1174 172.45 51.9971 172.197 51.8801L173.461 47.8233C174.669 48.1094 175.737 48.2134 176.664 48.1354C177.591 48.0574 178.417 47.677 179.14 46.9944C179.864 46.3118 180.527 45.2098 181.131 43.6885L182.059 41.3481L170.09 11.2342L175.484 11.2342L184.419 35.1068L184.756 35.1068L193.69 11.2342L199.084 11.2342L185.346 45.5609C183.506 50.1378 180.331 52.4262 175.821 52.4262L175.821 52.4262ZM163.516 1.24826L163.516 41.192L158.543 41.192L158.543 1.24826L163.516 1.24826ZM138.567 41.8162C135.532 41.8162 132.92 41.153 130.728 39.8268C128.537 38.5005 126.851 36.6736 125.671 34.3462C124.491 32.0187 123.901 29.3597 123.901 26.3691C123.901 23.3265 124.509 20.6383 125.724 18.3043C126.939 15.9704 128.639 14.1435 130.823 12.8238C133.007 11.504 135.561 10.8441 138.482 10.8441C140.758 10.8441 142.809 11.2342 144.635 12.0143C146.462 12.7945 147.958 13.8867 149.124 15.291C150.29 16.6953 151.013 18.3336 151.294 20.2059L146.321 20.2059C145.942 18.8407 145.102 17.6282 143.803 16.5685C142.504 15.5088 140.758 14.9789 138.567 14.9789C135.659 14.9789 133.316 16.0029 131.539 18.0508C129.762 20.0987 128.874 22.8195 128.874 26.2131C128.874 29.6848 129.752 32.4641 131.508 34.551C133.264 36.6379 135.617 37.6813 138.567 37.6813C140.505 37.6813 142.167 37.2198 143.55 36.2966C144.934 35.3734 145.858 34.0927 146.321 32.4543L151.294 32.4543C151.013 34.2227 150.321 35.8122 149.218 37.223C148.116 38.6338 146.662 39.752 144.857 40.5777C143.052 41.4033 140.955 41.8162 138.567 41.8162L138.567 41.8162ZM111.342 41.192L111.342 11.2342L116.315 11.2342L116.315 41.192L111.342 41.192ZM113.871 6.24121C112.902 6.24121 112.069 5.93567 111.374 5.32452C110.679 4.71341 110.331 3.97879 110.331 3.12061C110.331 2.26245 110.679 1.5278 111.374 0.916687C112.069 0.305573 112.902 0 113.871 0C114.84 0 115.673 0.305573 116.368 0.916687C117.063 1.5278 117.411 2.26245 117.411 3.12061C117.411 3.97879 117.063 4.71341 116.368 5.32452C115.673 5.93567 114.84 6.24121 113.871 6.24121L113.871 6.24121ZM75.1834 52.4262L75.1834 11.2342L79.9877 11.2342L79.9877 15.9931L80.5778 15.9931C80.943 15.473 81.4522 14.8066 82.1055 13.994C82.7587 13.1813 83.6999 12.4532 84.929 11.8095C86.1582 11.1659 87.8264 10.8441 89.9335 10.8441C92.6588 10.8441 95.061 11.4747 97.14 12.736C99.2191 13.9972 100.842 15.7851 102.008 18.0995C103.174 20.414 103.757 23.1445 103.757 26.2911C103.757 29.4637 103.174 32.2105 102.008 34.5315C100.842 36.8524 99.2261 38.6468 97.1611 39.9145C95.0961 41.1823 92.715 41.8162 90.0178 41.8162C87.9388 41.8162 86.2741 41.4943 85.0239 40.8507C83.7736 40.2071 82.8114 39.4724 82.1371 38.6468C81.4628 37.8211 80.943 37.1353 80.5778 36.5891L80.1563 36.5891L80.1563 52.4262L75.1834 52.4262ZM80.072 26.2131C80.072 29.6068 80.8692 32.3666 82.4637 34.4925C84.0581 36.6184 86.3514 37.6814 89.3435 37.6814C91.4226 37.6814 93.161 37.171 94.5588 36.1503C95.9565 35.1296 97.0101 33.7513 97.7195 32.0155C98.4289 30.2797 98.7836 28.3456 98.7836 26.2131C98.7836 24.1067 98.4359 22.2051 97.7406 20.5083C97.0452 18.8114 95.9987 17.4657 94.6009 16.471C93.2031 15.4763 91.4507 14.9789 89.3435 14.9789C86.3092 14.9789 84.0054 16.0126 82.4321 18.08C80.8587 20.1474 80.072 22.8585 80.072 26.2131L80.072 26.2131ZM52.9319 41.8162C50.0099 41.8162 47.4497 41.1725 45.2513 39.8853C43.0528 38.598 41.339 36.7972 40.1098 34.4827C38.8806 32.1683 38.266 29.4637 38.266 26.3691C38.266 23.2485 38.8806 20.5245 40.1098 18.1971C41.339 15.8696 43.0528 14.0623 45.2513 12.775C47.4497 11.4877 50.0099 10.8441 52.9319 10.8441C55.8538 10.8441 58.414 11.4877 60.6125 12.775C62.8109 14.0623 64.5247 15.8696 65.7539 18.1971C66.9831 20.5245 67.5977 23.2485 67.5977 26.3691C67.5977 29.4637 66.9831 32.1683 65.7539 34.4827C64.5248 36.7972 62.8109 38.598 60.6125 39.8853C58.414 41.1725 55.8538 41.8162 52.9319 41.8162L52.9319 41.8162ZM52.9318 37.6814C55.1514 37.6814 56.9776 37.1548 58.4104 36.1016C59.8433 35.0483 60.9039 33.6636 61.5923 31.9472C62.2806 30.2309 62.6248 28.3716 62.6248 26.3692C62.6248 24.3668 62.2806 22.5009 61.5923 20.7716C60.9039 19.0422 59.8433 17.6445 58.4104 16.5782C56.9776 15.5121 55.1514 14.9789 52.9318 14.9789C50.7123 14.9789 48.8861 15.5121 47.4532 16.5782C46.0204 17.6445 44.9598 19.0422 44.2714 20.7716C43.5831 22.5009 43.2389 24.3668 43.2389 26.3692C43.2389 28.3716 43.5831 30.2309 44.2714 31.9472C44.9598 33.6636 46.0204 35.0483 47.4532 36.1016C48.8861 37.1548 50.7123 37.6814 52.9318 37.6814L52.9318 37.6814ZM0 5.53909L0 1.24826L32.366 1.24826L32.366 5.53909L18.7959 5.53909L18.7959 41.192L13.5701 41.192L13.5701 5.53909L0 5.53909Z" id="Topicly" fill="url(#gradient_1)" stroke="none" />
</svg>