<?xml version="1.0" standalone="no"?>
<svg xmlns:xlink="http://www.w3.org/1999/xlink" id="wave" style="transform:rotate(180deg); transition: 0.3s" viewBox="0 0 1440 450" version="1.1" xmlns="http://www.w3.org/2000/svg"><defs><linearGradient id="sw-gradient-0" x1="0" x2="0" y1="1" y2="0"><stop stop-color="rgba(131, 8, 145, 1)" offset="0%"/><stop stop-color="rgba(131, 8, 145, 1)" offset="100%"/></linearGradient></defs><path style="transform:translate(0, 0px); opacity:1" fill="url(#sw-gradient-0)" d="M0,0L34.3,22.5C68.6,45,137,90,206,112.5C274.3,135,343,135,411,157.5C480,180,549,225,617,210C685.7,195,754,120,823,97.5C891.4,75,960,105,1029,127.5C1097.1,150,1166,165,1234,142.5C1302.9,120,1371,60,1440,82.5C1508.6,105,1577,210,1646,225C1714.3,240,1783,165,1851,157.5C1920,150,1989,210,2057,240C2125.7,270,2194,270,2263,255C2331.4,240,2400,210,2469,232.5C2537.1,255,2606,330,2674,307.5C2742.9,285,2811,165,2880,150C2948.6,135,3017,225,3086,240C3154.3,255,3223,195,3291,195C3360,195,3429,255,3497,255C3565.7,255,3634,195,3703,202.5C3771.4,210,3840,285,3909,292.5C3977.1,300,4046,240,4114,210C4182.9,180,4251,180,4320,210C4388.6,240,4457,300,4526,292.5C4594.3,285,4663,210,4731,217.5C4800,225,4869,315,4903,360L4937.1,405L4937.1,450L4902.9,450C4868.6,450,4800,450,4731,450C4662.9,450,4594,450,4526,450C4457.1,450,4389,450,4320,450C4251.4,450,4183,450,4114,450C4045.7,450,3977,450,3909,450C3840,450,3771,450,3703,450C3634.3,450,3566,450,3497,450C3428.6,450,3360,450,3291,450C3222.9,450,3154,450,3086,450C3017.1,450,2949,450,2880,450C2811.4,450,2743,450,2674,450C2605.7,450,2537,450,2469,450C2400,450,2331,450,2263,450C2194.3,450,2126,450,2057,450C1988.6,450,1920,450,1851,450C1782.9,450,1714,450,1646,450C1577.1,450,1509,450,1440,450C1371.4,450,1303,450,1234,450C1165.7,450,1097,450,1029,450C960,450,891,450,823,450C754.3,450,686,450,617,450C548.6,450,480,450,411,450C342.9,450,274,450,206,450C137.1,450,69,450,34,450L0,450Z"/><defs><linearGradient id="sw-gradient-1" x1="0" x2="0" y1="1" y2="0"><stop stop-color="rgba(234, 83, 154, 1)" offset="0%"/><stop stop-color="rgba(234, 83, 154, 1)" offset="100%"/></linearGradient></defs><path style="transform:translate(0, 50px); opacity:0.9" fill="url(#sw-gradient-1)" d="M0,270L34.3,270C68.6,270,137,270,206,285C274.3,300,343,330,411,315C480,300,549,240,617,240C685.7,240,754,300,823,270C891.4,240,960,120,1029,112.5C1097.1,105,1166,210,1234,225C1302.9,240,1371,165,1440,172.5C1508.6,180,1577,270,1646,292.5C1714.3,315,1783,270,1851,240C1920,210,1989,195,2057,157.5C2125.7,120,2194,60,2263,97.5C2331.4,135,2400,270,2469,277.5C2537.1,285,2606,165,2674,165C2742.9,165,2811,285,2880,307.5C2948.6,330,3017,255,3086,225C3154.3,195,3223,210,3291,195C3360,180,3429,135,3497,157.5C3565.7,180,3634,270,3703,277.5C3771.4,285,3840,210,3909,172.5C3977.1,135,4046,135,4114,150C4182.9,165,4251,195,4320,195C4388.6,195,4457,165,4526,195C4594.3,225,4663,315,4731,352.5C4800,390,4869,375,4903,367.5L4937.1,360L4937.1,450L4902.9,450C4868.6,450,4800,450,4731,450C4662.9,450,4594,450,4526,450C4457.1,450,4389,450,4320,450C4251.4,450,4183,450,4114,450C4045.7,450,3977,450,3909,450C3840,450,3771,450,3703,450C3634.3,450,3566,450,3497,450C3428.6,450,3360,450,3291,450C3222.9,450,3154,450,3086,450C3017.1,450,2949,450,2880,450C2811.4,450,2743,450,2674,450C2605.7,450,2537,450,2469,450C2400,450,2331,450,2263,450C2194.3,450,2126,450,2057,450C1988.6,450,1920,450,1851,450C1782.9,450,1714,450,1646,450C1577.1,450,1509,450,1440,450C1371.4,450,1303,450,1234,450C1165.7,450,1097,450,1029,450C960,450,891,450,823,450C754.3,450,686,450,617,450C548.6,450,480,450,411,450C342.9,450,274,450,206,450C137.1,450,69,450,34,450L0,450Z"/></svg>